M48
; DRILL file {KiCad (5.1.5)-3} date 12/04/2020 12:52:28
; FORMAT={-:-/ absolute / metric / decimal}
; #@! TF.CreationDate,2020-04-12T12:52:28+02:00
; #@! TF.GenerationSoftware,Kicad,Pcbnew,(5.1.5)-3
; #@! TF.FileFunction,Plated,1,2,PTH
FMAT,2
METRIC
T1C0.800
T2C1.000
T3C1.016
T4C1.520
T5C1.778
%
G90
G05
T1
X147.955Y-89.535
X148.59Y-76.835
X148.59Y-79.375
X142.28Y-77.47
X144.78Y-77.47
X150.495Y-89.535
X142.875Y-95.25
X142.875Y-97.79
X142.875Y-100.33
X150.495Y-95.25
X150.495Y-97.79
X150.495Y-100.33
X142.875Y-88.9
X142.875Y-91.44
T2
X144.78Y-84.455
X147.32Y-84.455
X149.86Y-84.455
T3
X139.446Y-71.247
X139.446Y-73.787
X139.446Y-76.327
X139.446Y-78.867
X139.446Y-81.407
X139.446Y-83.947
X139.446Y-86.487
X139.446Y-89.027
X139.446Y-91.567
X139.446Y-94.107
X139.446Y-96.647
X139.446Y-99.187
X139.446Y-101.727
X139.446Y-104.267
X139.446Y-106.807
X154.686Y-71.247
X154.686Y-73.787
X154.686Y-76.327
X154.686Y-78.867
X154.686Y-81.407
X154.686Y-83.947
X154.686Y-86.487
X154.686Y-89.027
X154.686Y-91.567
X154.686Y-94.107
X154.686Y-96.647
X154.686Y-99.187
X154.686Y-101.727
X154.686Y-104.267
X154.686Y-106.807
T4
X144.78Y-106.68
X149.86Y-106.68
X144.78Y-71.12
X149.86Y-71.12
T5
X154.686Y-68.707
X139.446Y-68.707
X154.686Y-109.347
X139.446Y-109.347
T0
M30
