G04 #@! TF.GenerationSoftware,KiCad,Pcbnew,(5.1.5)-3*
G04 #@! TF.CreationDate,2020-04-12T12:52:20+02:00*
G04 #@! TF.ProjectId,NanoIrrigator,4e616e6f-4972-4726-9967-61746f722e6b,0.1*
G04 #@! TF.SameCoordinates,Original*
G04 #@! TF.FileFunction,Other,Fab,Top*
%FSLAX46Y46*%
G04 Gerber Fmt 4.6, Leading zero omitted, Abs format (unit mm)*
G04 Created by KiCad (PCBNEW (5.1.5)-3) date 2020-04-12 12:52:20*
%MOMM*%
%LPD*%
G04 APERTURE LIST*
%ADD10C,0.100000*%
%ADD11C,0.150000*%
G04 APERTURE END LIST*
D10*
X145470000Y-86955000D02*
X145470000Y-85685000D01*
X149170000Y-86955000D02*
X149170000Y-85685000D01*
X152320000Y-85685000D02*
X142320000Y-85685000D01*
X142320000Y-86955000D02*
X152320000Y-86955000D01*
X142320000Y-82555000D02*
X142320000Y-86955000D01*
X152320000Y-82555000D02*
X142320000Y-82555000D01*
X152320000Y-86955000D02*
X152320000Y-82555000D01*
X151765000Y-93920000D02*
X141605000Y-93920000D01*
X151765000Y-101660000D02*
X151765000Y-93920000D01*
X141605000Y-101660000D02*
X151765000Y-101660000D01*
X141605000Y-93920000D02*
X141605000Y-101660000D01*
X143510000Y-94980000D02*
X144510000Y-93980000D01*
X143510000Y-101600000D02*
X143510000Y-94980000D01*
X149860000Y-101600000D02*
X143510000Y-101600000D01*
X149860000Y-93980000D02*
X149860000Y-101600000D01*
X144510000Y-93980000D02*
X149860000Y-93980000D01*
X150190000Y-79375000D02*
G75*
G03X150190000Y-79375000I-1600000J0D01*
G01*
X148590000Y-79375000D02*
X148590000Y-76835000D01*
X149205000Y-89535000D02*
G75*
G03X149205000Y-89535000I-1250000J0D01*
G01*
X147955000Y-89535000D02*
X150495000Y-89535000D01*
X144125000Y-88900000D02*
G75*
G03X144125000Y-88900000I-1250000J0D01*
G01*
X142875000Y-88900000D02*
X142875000Y-91440000D01*
X142030000Y-78270000D02*
X145030000Y-78270000D01*
X142030000Y-76670000D02*
X142030000Y-78270000D01*
X145030000Y-76670000D02*
X142030000Y-76670000D01*
X145030000Y-78270000D02*
X145030000Y-76670000D01*
X152320000Y-102930000D02*
X142320000Y-102930000D01*
X152320000Y-110430000D02*
X152320000Y-102930000D01*
X142320000Y-110430000D02*
X152320000Y-110430000D01*
X142320000Y-102930000D02*
X142320000Y-110430000D01*
X142370000Y-109230000D02*
X152270000Y-109230000D01*
X152270000Y-68570000D02*
X142370000Y-68570000D01*
X152320000Y-74870000D02*
X152320000Y-67370000D01*
X152320000Y-67370000D02*
X142320000Y-67370000D01*
X142320000Y-67370000D02*
X142320000Y-74870000D01*
X142320000Y-74870000D02*
X152320000Y-74870000D01*
D11*
X144272380Y-81367380D02*
X144843809Y-81367380D01*
X144558095Y-82367380D02*
X144558095Y-81367380D01*
X145653333Y-82367380D02*
X145177142Y-82367380D01*
X145177142Y-81367380D01*
X146558095Y-82272142D02*
X146510476Y-82319761D01*
X146367619Y-82367380D01*
X146272380Y-82367380D01*
X146129523Y-82319761D01*
X146034285Y-82224523D01*
X145986666Y-82129285D01*
X145939047Y-81938809D01*
X145939047Y-81795952D01*
X145986666Y-81605476D01*
X146034285Y-81510238D01*
X146129523Y-81415000D01*
X146272380Y-81367380D01*
X146367619Y-81367380D01*
X146510476Y-81415000D01*
X146558095Y-81462619D01*
X146939047Y-81462619D02*
X146986666Y-81415000D01*
X147081904Y-81367380D01*
X147320000Y-81367380D01*
X147415238Y-81415000D01*
X147462857Y-81462619D01*
X147510476Y-81557857D01*
X147510476Y-81653095D01*
X147462857Y-81795952D01*
X146891428Y-82367380D01*
X147510476Y-82367380D01*
X147891428Y-81462619D02*
X147939047Y-81415000D01*
X148034285Y-81367380D01*
X148272380Y-81367380D01*
X148367619Y-81415000D01*
X148415238Y-81462619D01*
X148462857Y-81557857D01*
X148462857Y-81653095D01*
X148415238Y-81795952D01*
X147843809Y-82367380D01*
X148462857Y-82367380D01*
X149320000Y-81367380D02*
X149129523Y-81367380D01*
X149034285Y-81415000D01*
X148986666Y-81462619D01*
X148891428Y-81605476D01*
X148843809Y-81795952D01*
X148843809Y-82176904D01*
X148891428Y-82272142D01*
X148939047Y-82319761D01*
X149034285Y-82367380D01*
X149224761Y-82367380D01*
X149320000Y-82319761D01*
X149367619Y-82272142D01*
X149415238Y-82176904D01*
X149415238Y-81938809D01*
X149367619Y-81843571D01*
X149320000Y-81795952D01*
X149224761Y-81748333D01*
X149034285Y-81748333D01*
X148939047Y-81795952D01*
X148891428Y-81843571D01*
X148843809Y-81938809D01*
X149796190Y-82081666D02*
X150272380Y-82081666D01*
X149700952Y-82367380D02*
X150034285Y-81367380D01*
X150367619Y-82367380D01*
X151661904Y-84907380D02*
X151661904Y-83907380D01*
X151900000Y-83907380D01*
X152042857Y-83955000D01*
X152138095Y-84050238D01*
X152185714Y-84145476D01*
X152233333Y-84335952D01*
X152233333Y-84478809D01*
X152185714Y-84669285D01*
X152138095Y-84764523D01*
X152042857Y-84859761D01*
X151900000Y-84907380D01*
X151661904Y-84907380D01*
X153185714Y-84907380D02*
X152614285Y-84907380D01*
X152900000Y-84907380D02*
X152900000Y-83907380D01*
X152804761Y-84050238D01*
X152709523Y-84145476D01*
X152614285Y-84193095D01*
X147772380Y-101623333D02*
X146772380Y-101623333D01*
X147486666Y-101290000D01*
X146772380Y-100956666D01*
X147772380Y-100956666D01*
X146772380Y-100290000D02*
X146772380Y-100099523D01*
X146820000Y-100004285D01*
X146915238Y-99909047D01*
X147105714Y-99861428D01*
X147439047Y-99861428D01*
X147629523Y-99909047D01*
X147724761Y-100004285D01*
X147772380Y-100099523D01*
X147772380Y-100290000D01*
X147724761Y-100385238D01*
X147629523Y-100480476D01*
X147439047Y-100528095D01*
X147105714Y-100528095D01*
X146915238Y-100480476D01*
X146820000Y-100385238D01*
X146772380Y-100290000D01*
X147677142Y-98861428D02*
X147724761Y-98909047D01*
X147772380Y-99051904D01*
X147772380Y-99147142D01*
X147724761Y-99290000D01*
X147629523Y-99385238D01*
X147534285Y-99432857D01*
X147343809Y-99480476D01*
X147200952Y-99480476D01*
X147010476Y-99432857D01*
X146915238Y-99385238D01*
X146820000Y-99290000D01*
X146772380Y-99147142D01*
X146772380Y-99051904D01*
X146820000Y-98909047D01*
X146867619Y-98861428D01*
X146772380Y-98528095D02*
X146772380Y-97909047D01*
X147153333Y-98242380D01*
X147153333Y-98099523D01*
X147200952Y-98004285D01*
X147248571Y-97956666D01*
X147343809Y-97909047D01*
X147581904Y-97909047D01*
X147677142Y-97956666D01*
X147724761Y-98004285D01*
X147772380Y-98099523D01*
X147772380Y-98385238D01*
X147724761Y-98480476D01*
X147677142Y-98528095D01*
X146772380Y-97290000D02*
X146772380Y-97194761D01*
X146820000Y-97099523D01*
X146867619Y-97051904D01*
X146962857Y-97004285D01*
X147153333Y-96956666D01*
X147391428Y-96956666D01*
X147581904Y-97004285D01*
X147677142Y-97051904D01*
X147724761Y-97099523D01*
X147772380Y-97194761D01*
X147772380Y-97290000D01*
X147724761Y-97385238D01*
X147677142Y-97432857D01*
X147581904Y-97480476D01*
X147391428Y-97528095D01*
X147153333Y-97528095D01*
X146962857Y-97480476D01*
X146867619Y-97432857D01*
X146820000Y-97385238D01*
X146772380Y-97290000D01*
X146867619Y-96575714D02*
X146820000Y-96528095D01*
X146772380Y-96432857D01*
X146772380Y-96194761D01*
X146820000Y-96099523D01*
X146867619Y-96051904D01*
X146962857Y-96004285D01*
X147058095Y-96004285D01*
X147200952Y-96051904D01*
X147772380Y-96623333D01*
X147772380Y-96004285D01*
X147772380Y-95051904D02*
X147772380Y-95623333D01*
X147772380Y-95337619D02*
X146772380Y-95337619D01*
X146915238Y-95432857D01*
X147010476Y-95528095D01*
X147058095Y-95623333D01*
X147772380Y-94623333D02*
X146772380Y-94623333D01*
X147486666Y-94290000D01*
X146772380Y-93956666D01*
X147772380Y-93956666D01*
X145502380Y-98551904D02*
X146311904Y-98551904D01*
X146407142Y-98504285D01*
X146454761Y-98456666D01*
X146502380Y-98361428D01*
X146502380Y-98170952D01*
X146454761Y-98075714D01*
X146407142Y-98028095D01*
X146311904Y-97980476D01*
X145502380Y-97980476D01*
X146502380Y-96980476D02*
X146502380Y-97551904D01*
X146502380Y-97266190D02*
X145502380Y-97266190D01*
X145645238Y-97361428D01*
X145740476Y-97456666D01*
X145788095Y-97551904D01*
X150797619Y-79271666D02*
X150750000Y-79224047D01*
X150702380Y-79128809D01*
X150702380Y-78890714D01*
X150750000Y-78795476D01*
X150797619Y-78747857D01*
X150892857Y-78700238D01*
X150988095Y-78700238D01*
X151130952Y-78747857D01*
X151702380Y-79319285D01*
X151702380Y-78700238D01*
X151702380Y-78271666D02*
X150702380Y-78271666D01*
X151321428Y-78176428D02*
X151702380Y-77890714D01*
X151035714Y-77890714D02*
X151416666Y-78271666D01*
X151035714Y-77033571D02*
X151702380Y-77033571D01*
X150654761Y-77271666D02*
X151369047Y-77509761D01*
X151369047Y-76890714D01*
X147939285Y-91297380D02*
X148558333Y-91297380D01*
X148225000Y-91678333D01*
X148367857Y-91678333D01*
X148463095Y-91725952D01*
X148510714Y-91773571D01*
X148558333Y-91868809D01*
X148558333Y-92106904D01*
X148510714Y-92202142D01*
X148463095Y-92249761D01*
X148367857Y-92297380D01*
X148082142Y-92297380D01*
X147986904Y-92249761D01*
X147939285Y-92202142D01*
X148891666Y-91297380D02*
X149510714Y-91297380D01*
X149177380Y-91678333D01*
X149320238Y-91678333D01*
X149415476Y-91725952D01*
X149463095Y-91773571D01*
X149510714Y-91868809D01*
X149510714Y-92106904D01*
X149463095Y-92202142D01*
X149415476Y-92249761D01*
X149320238Y-92297380D01*
X149034523Y-92297380D01*
X148939285Y-92249761D01*
X148891666Y-92202142D01*
X150129761Y-91297380D02*
X150225000Y-91297380D01*
X150320238Y-91345000D01*
X150367857Y-91392619D01*
X150415476Y-91487857D01*
X150463095Y-91678333D01*
X150463095Y-91916428D01*
X150415476Y-92106904D01*
X150367857Y-92202142D01*
X150320238Y-92249761D01*
X150225000Y-92297380D01*
X150129761Y-92297380D01*
X150034523Y-92249761D01*
X149986904Y-92202142D01*
X149939285Y-92106904D01*
X149891666Y-91916428D01*
X149891666Y-91678333D01*
X149939285Y-91487857D01*
X149986904Y-91392619D01*
X150034523Y-91345000D01*
X150129761Y-91297380D01*
X144962619Y-90138095D02*
X144915000Y-90090476D01*
X144867380Y-89995238D01*
X144867380Y-89757142D01*
X144915000Y-89661904D01*
X144962619Y-89614285D01*
X145057857Y-89566666D01*
X145153095Y-89566666D01*
X145295952Y-89614285D01*
X145867380Y-90185714D01*
X145867380Y-89566666D01*
X144962619Y-89185714D02*
X144915000Y-89138095D01*
X144867380Y-89042857D01*
X144867380Y-88804761D01*
X144915000Y-88709523D01*
X144962619Y-88661904D01*
X145057857Y-88614285D01*
X145153095Y-88614285D01*
X145295952Y-88661904D01*
X145867380Y-89233333D01*
X145867380Y-88614285D01*
X144867380Y-87995238D02*
X144867380Y-87900000D01*
X144915000Y-87804761D01*
X144962619Y-87757142D01*
X145057857Y-87709523D01*
X145248333Y-87661904D01*
X145486428Y-87661904D01*
X145676904Y-87709523D01*
X145772142Y-87757142D01*
X145819761Y-87804761D01*
X145867380Y-87900000D01*
X145867380Y-87995238D01*
X145819761Y-88090476D01*
X145772142Y-88138095D01*
X145676904Y-88185714D01*
X145486428Y-88233333D01*
X145248333Y-88233333D01*
X145057857Y-88185714D01*
X144962619Y-88138095D01*
X144915000Y-88090476D01*
X144867380Y-87995238D01*
X142438380Y-93630476D02*
X141438380Y-93630476D01*
X141438380Y-93392380D01*
X141486000Y-93249523D01*
X141581238Y-93154285D01*
X141676476Y-93106666D01*
X141866952Y-93059047D01*
X142009809Y-93059047D01*
X142200285Y-93106666D01*
X142295523Y-93154285D01*
X142390761Y-93249523D01*
X142438380Y-93392380D01*
X142438380Y-93630476D01*
X142438380Y-92630476D02*
X141771714Y-92630476D01*
X141438380Y-92630476D02*
X141486000Y-92678095D01*
X141533619Y-92630476D01*
X141486000Y-92582857D01*
X141438380Y-92630476D01*
X141533619Y-92630476D01*
X141771714Y-91725714D02*
X142581238Y-91725714D01*
X142676476Y-91773333D01*
X142724095Y-91820952D01*
X142771714Y-91916190D01*
X142771714Y-92059047D01*
X142724095Y-92154285D01*
X142390761Y-91725714D02*
X142438380Y-91820952D01*
X142438380Y-92011428D01*
X142390761Y-92106666D01*
X142343142Y-92154285D01*
X142247904Y-92201904D01*
X141962190Y-92201904D01*
X141866952Y-92154285D01*
X141819333Y-92106666D01*
X141771714Y-92011428D01*
X141771714Y-91820952D01*
X141819333Y-91725714D01*
X142438380Y-91249523D02*
X141771714Y-91249523D01*
X141438380Y-91249523D02*
X141486000Y-91297142D01*
X141533619Y-91249523D01*
X141486000Y-91201904D01*
X141438380Y-91249523D01*
X141533619Y-91249523D01*
X141771714Y-90916190D02*
X141771714Y-90535238D01*
X141438380Y-90773333D02*
X142295523Y-90773333D01*
X142390761Y-90725714D01*
X142438380Y-90630476D01*
X142438380Y-90535238D01*
X142438380Y-89773333D02*
X141914571Y-89773333D01*
X141819333Y-89820952D01*
X141771714Y-89916190D01*
X141771714Y-90106666D01*
X141819333Y-90201904D01*
X142390761Y-89773333D02*
X142438380Y-89868571D01*
X142438380Y-90106666D01*
X142390761Y-90201904D01*
X142295523Y-90249523D01*
X142200285Y-90249523D01*
X142105047Y-90201904D01*
X142057428Y-90106666D01*
X142057428Y-89868571D01*
X142009809Y-89773333D01*
X142438380Y-89154285D02*
X142390761Y-89249523D01*
X142295523Y-89297142D01*
X141438380Y-89297142D01*
X152312666Y-93749523D02*
X152312666Y-93273333D01*
X152598380Y-93844761D02*
X151598380Y-93511428D01*
X152598380Y-93178095D01*
X151931714Y-92844761D02*
X152598380Y-92844761D01*
X152026952Y-92844761D02*
X151979333Y-92797142D01*
X151931714Y-92701904D01*
X151931714Y-92559047D01*
X151979333Y-92463809D01*
X152074571Y-92416190D01*
X152598380Y-92416190D01*
X152598380Y-91511428D02*
X152074571Y-91511428D01*
X151979333Y-91559047D01*
X151931714Y-91654285D01*
X151931714Y-91844761D01*
X151979333Y-91940000D01*
X152550761Y-91511428D02*
X152598380Y-91606666D01*
X152598380Y-91844761D01*
X152550761Y-91940000D01*
X152455523Y-91987619D01*
X152360285Y-91987619D01*
X152265047Y-91940000D01*
X152217428Y-91844761D01*
X152217428Y-91606666D01*
X152169809Y-91511428D01*
X152598380Y-90892380D02*
X152550761Y-90987619D01*
X152455523Y-91035238D01*
X151598380Y-91035238D01*
X152598380Y-90368571D02*
X152550761Y-90463809D01*
X152503142Y-90511428D01*
X152407904Y-90559047D01*
X152122190Y-90559047D01*
X152026952Y-90511428D01*
X151979333Y-90463809D01*
X151931714Y-90368571D01*
X151931714Y-90225714D01*
X151979333Y-90130476D01*
X152026952Y-90082857D01*
X152122190Y-90035238D01*
X152407904Y-90035238D01*
X152503142Y-90082857D01*
X152550761Y-90130476D01*
X152598380Y-90225714D01*
X152598380Y-90368571D01*
X151931714Y-89178095D02*
X152741238Y-89178095D01*
X152836476Y-89225714D01*
X152884095Y-89273333D01*
X152931714Y-89368571D01*
X152931714Y-89511428D01*
X152884095Y-89606666D01*
X152550761Y-89178095D02*
X152598380Y-89273333D01*
X152598380Y-89463809D01*
X152550761Y-89559047D01*
X152503142Y-89606666D01*
X152407904Y-89654285D01*
X152122190Y-89654285D01*
X152026952Y-89606666D01*
X151979333Y-89559047D01*
X151931714Y-89463809D01*
X151931714Y-89273333D01*
X151979333Y-89178095D01*
X142410952Y-80462380D02*
X141839523Y-80462380D01*
X142125238Y-80462380D02*
X142125238Y-79462380D01*
X142030000Y-79605238D01*
X141934761Y-79700476D01*
X141839523Y-79748095D01*
X143030000Y-79462380D02*
X143125238Y-79462380D01*
X143220476Y-79510000D01*
X143268095Y-79557619D01*
X143315714Y-79652857D01*
X143363333Y-79843333D01*
X143363333Y-80081428D01*
X143315714Y-80271904D01*
X143268095Y-80367142D01*
X143220476Y-80414761D01*
X143125238Y-80462380D01*
X143030000Y-80462380D01*
X142934761Y-80414761D01*
X142887142Y-80367142D01*
X142839523Y-80271904D01*
X142791904Y-80081428D01*
X142791904Y-79843333D01*
X142839523Y-79652857D01*
X142887142Y-79557619D01*
X142934761Y-79510000D01*
X143030000Y-79462380D01*
X143982380Y-79462380D02*
X144077619Y-79462380D01*
X144172857Y-79510000D01*
X144220476Y-79557619D01*
X144268095Y-79652857D01*
X144315714Y-79843333D01*
X144315714Y-80081428D01*
X144268095Y-80271904D01*
X144220476Y-80367142D01*
X144172857Y-80414761D01*
X144077619Y-80462380D01*
X143982380Y-80462380D01*
X143887142Y-80414761D01*
X143839523Y-80367142D01*
X143791904Y-80271904D01*
X143744285Y-80081428D01*
X143744285Y-79843333D01*
X143791904Y-79652857D01*
X143839523Y-79557619D01*
X143887142Y-79510000D01*
X143982380Y-79462380D01*
X144744285Y-79795714D02*
X144744285Y-80462380D01*
X144744285Y-79890952D02*
X144791904Y-79843333D01*
X144887142Y-79795714D01*
X145030000Y-79795714D01*
X145125238Y-79843333D01*
X145172857Y-79938571D01*
X145172857Y-80462380D01*
X143363333Y-77827142D02*
X143315714Y-77874761D01*
X143172857Y-77922380D01*
X143077619Y-77922380D01*
X142934761Y-77874761D01*
X142839523Y-77779523D01*
X142791904Y-77684285D01*
X142744285Y-77493809D01*
X142744285Y-77350952D01*
X142791904Y-77160476D01*
X142839523Y-77065238D01*
X142934761Y-76970000D01*
X143077619Y-76922380D01*
X143172857Y-76922380D01*
X143315714Y-76970000D01*
X143363333Y-77017619D01*
X144315714Y-77922380D02*
X143744285Y-77922380D01*
X144030000Y-77922380D02*
X144030000Y-76922380D01*
X143934761Y-77065238D01*
X143839523Y-77160476D01*
X143744285Y-77208095D01*
X139081904Y-112164761D02*
X139224761Y-112212380D01*
X139462857Y-112212380D01*
X139558095Y-112164761D01*
X139605714Y-112117142D01*
X139653333Y-112021904D01*
X139653333Y-111926666D01*
X139605714Y-111831428D01*
X139558095Y-111783809D01*
X139462857Y-111736190D01*
X139272380Y-111688571D01*
X139177142Y-111640952D01*
X139129523Y-111593333D01*
X139081904Y-111498095D01*
X139081904Y-111402857D01*
X139129523Y-111307619D01*
X139177142Y-111260000D01*
X139272380Y-111212380D01*
X139510476Y-111212380D01*
X139653333Y-111260000D01*
X140510476Y-112164761D02*
X140415238Y-112212380D01*
X140224761Y-112212380D01*
X140129523Y-112164761D01*
X140081904Y-112117142D01*
X140034285Y-112021904D01*
X140034285Y-111736190D01*
X140081904Y-111640952D01*
X140129523Y-111593333D01*
X140224761Y-111545714D01*
X140415238Y-111545714D01*
X140510476Y-111593333D01*
X140939047Y-112212380D02*
X140939047Y-111545714D01*
X140939047Y-111736190D02*
X140986666Y-111640952D01*
X141034285Y-111593333D01*
X141129523Y-111545714D01*
X141224761Y-111545714D01*
X141939047Y-112164761D02*
X141843809Y-112212380D01*
X141653333Y-112212380D01*
X141558095Y-112164761D01*
X141510476Y-112069523D01*
X141510476Y-111688571D01*
X141558095Y-111593333D01*
X141653333Y-111545714D01*
X141843809Y-111545714D01*
X141939047Y-111593333D01*
X141986666Y-111688571D01*
X141986666Y-111783809D01*
X141510476Y-111879047D01*
X142320000Y-111545714D02*
X142510476Y-112212380D01*
X142700952Y-111736190D01*
X142891428Y-112212380D01*
X143081904Y-111545714D01*
X143224761Y-112307619D02*
X143986666Y-112307619D01*
X144081904Y-111212380D02*
X144653333Y-111212380D01*
X144367619Y-112212380D02*
X144367619Y-111212380D01*
X145367619Y-112164761D02*
X145272380Y-112212380D01*
X145081904Y-112212380D01*
X144986666Y-112164761D01*
X144939047Y-112069523D01*
X144939047Y-111688571D01*
X144986666Y-111593333D01*
X145081904Y-111545714D01*
X145272380Y-111545714D01*
X145367619Y-111593333D01*
X145415238Y-111688571D01*
X145415238Y-111783809D01*
X144939047Y-111879047D01*
X145843809Y-112212380D02*
X145843809Y-111545714D01*
X145843809Y-111736190D02*
X145891428Y-111640952D01*
X145939047Y-111593333D01*
X146034285Y-111545714D01*
X146129523Y-111545714D01*
X146462857Y-112212380D02*
X146462857Y-111545714D01*
X146462857Y-111640952D02*
X146510476Y-111593333D01*
X146605714Y-111545714D01*
X146748571Y-111545714D01*
X146843809Y-111593333D01*
X146891428Y-111688571D01*
X146891428Y-112212380D01*
X146891428Y-111688571D02*
X146939047Y-111593333D01*
X147034285Y-111545714D01*
X147177142Y-111545714D01*
X147272380Y-111593333D01*
X147320000Y-111688571D01*
X147320000Y-112212380D01*
X147796190Y-112212380D02*
X147796190Y-111545714D01*
X147796190Y-111212380D02*
X147748571Y-111260000D01*
X147796190Y-111307619D01*
X147843809Y-111260000D01*
X147796190Y-111212380D01*
X147796190Y-111307619D01*
X148272380Y-111545714D02*
X148272380Y-112212380D01*
X148272380Y-111640952D02*
X148320000Y-111593333D01*
X148415238Y-111545714D01*
X148558095Y-111545714D01*
X148653333Y-111593333D01*
X148700952Y-111688571D01*
X148700952Y-112212380D01*
X149605714Y-112212380D02*
X149605714Y-111688571D01*
X149558095Y-111593333D01*
X149462857Y-111545714D01*
X149272380Y-111545714D01*
X149177142Y-111593333D01*
X149605714Y-112164761D02*
X149510476Y-112212380D01*
X149272380Y-112212380D01*
X149177142Y-112164761D01*
X149129523Y-112069523D01*
X149129523Y-111974285D01*
X149177142Y-111879047D01*
X149272380Y-111831428D01*
X149510476Y-111831428D01*
X149605714Y-111783809D01*
X150224761Y-112212380D02*
X150129523Y-112164761D01*
X150081904Y-112069523D01*
X150081904Y-111212380D01*
X150367619Y-112307619D02*
X151129523Y-112307619D01*
X151558095Y-111212380D02*
X151653333Y-111212380D01*
X151748571Y-111260000D01*
X151796190Y-111307619D01*
X151843809Y-111402857D01*
X151891428Y-111593333D01*
X151891428Y-111831428D01*
X151843809Y-112021904D01*
X151796190Y-112117142D01*
X151748571Y-112164761D01*
X151653333Y-112212380D01*
X151558095Y-112212380D01*
X151462857Y-112164761D01*
X151415238Y-112117142D01*
X151367619Y-112021904D01*
X151320000Y-111831428D01*
X151320000Y-111593333D01*
X151367619Y-111402857D01*
X151415238Y-111307619D01*
X151462857Y-111260000D01*
X151558095Y-111212380D01*
X152843809Y-112212380D02*
X152272380Y-112212380D01*
X152558095Y-112212380D02*
X152558095Y-111212380D01*
X152462857Y-111355238D01*
X152367619Y-111450476D01*
X152272380Y-111498095D01*
X153177142Y-112212380D02*
X153700952Y-111545714D01*
X153177142Y-111545714D02*
X153700952Y-112212380D01*
X154272380Y-111212380D02*
X154367619Y-111212380D01*
X154462857Y-111260000D01*
X154510476Y-111307619D01*
X154558095Y-111402857D01*
X154605714Y-111593333D01*
X154605714Y-111831428D01*
X154558095Y-112021904D01*
X154510476Y-112117142D01*
X154462857Y-112164761D01*
X154367619Y-112212380D01*
X154272380Y-112212380D01*
X154177142Y-112164761D01*
X154129523Y-112117142D01*
X154081904Y-112021904D01*
X154034285Y-111831428D01*
X154034285Y-111593333D01*
X154081904Y-111402857D01*
X154129523Y-111307619D01*
X154177142Y-111260000D01*
X154272380Y-111212380D01*
X154986666Y-111307619D02*
X155034285Y-111260000D01*
X155129523Y-111212380D01*
X155367619Y-111212380D01*
X155462857Y-111260000D01*
X155510476Y-111307619D01*
X155558095Y-111402857D01*
X155558095Y-111498095D01*
X155510476Y-111640952D01*
X154939047Y-112212380D01*
X155558095Y-112212380D01*
X146986666Y-106132380D02*
X146986666Y-106846666D01*
X146939047Y-106989523D01*
X146843809Y-107084761D01*
X146700952Y-107132380D01*
X146605714Y-107132380D01*
X147986666Y-107132380D02*
X147415238Y-107132380D01*
X147700952Y-107132380D02*
X147700952Y-106132380D01*
X147605714Y-106275238D01*
X147510476Y-106370476D01*
X147415238Y-106418095D01*
X139081904Y-66444761D02*
X139224761Y-66492380D01*
X139462857Y-66492380D01*
X139558095Y-66444761D01*
X139605714Y-66397142D01*
X139653333Y-66301904D01*
X139653333Y-66206666D01*
X139605714Y-66111428D01*
X139558095Y-66063809D01*
X139462857Y-66016190D01*
X139272380Y-65968571D01*
X139177142Y-65920952D01*
X139129523Y-65873333D01*
X139081904Y-65778095D01*
X139081904Y-65682857D01*
X139129523Y-65587619D01*
X139177142Y-65540000D01*
X139272380Y-65492380D01*
X139510476Y-65492380D01*
X139653333Y-65540000D01*
X140510476Y-66444761D02*
X140415238Y-66492380D01*
X140224761Y-66492380D01*
X140129523Y-66444761D01*
X140081904Y-66397142D01*
X140034285Y-66301904D01*
X140034285Y-66016190D01*
X140081904Y-65920952D01*
X140129523Y-65873333D01*
X140224761Y-65825714D01*
X140415238Y-65825714D01*
X140510476Y-65873333D01*
X140939047Y-66492380D02*
X140939047Y-65825714D01*
X140939047Y-66016190D02*
X140986666Y-65920952D01*
X141034285Y-65873333D01*
X141129523Y-65825714D01*
X141224761Y-65825714D01*
X141939047Y-66444761D02*
X141843809Y-66492380D01*
X141653333Y-66492380D01*
X141558095Y-66444761D01*
X141510476Y-66349523D01*
X141510476Y-65968571D01*
X141558095Y-65873333D01*
X141653333Y-65825714D01*
X141843809Y-65825714D01*
X141939047Y-65873333D01*
X141986666Y-65968571D01*
X141986666Y-66063809D01*
X141510476Y-66159047D01*
X142320000Y-65825714D02*
X142510476Y-66492380D01*
X142700952Y-66016190D01*
X142891428Y-66492380D01*
X143081904Y-65825714D01*
X143224761Y-66587619D02*
X143986666Y-66587619D01*
X144081904Y-65492380D02*
X144653333Y-65492380D01*
X144367619Y-66492380D02*
X144367619Y-65492380D01*
X145367619Y-66444761D02*
X145272380Y-66492380D01*
X145081904Y-66492380D01*
X144986666Y-66444761D01*
X144939047Y-66349523D01*
X144939047Y-65968571D01*
X144986666Y-65873333D01*
X145081904Y-65825714D01*
X145272380Y-65825714D01*
X145367619Y-65873333D01*
X145415238Y-65968571D01*
X145415238Y-66063809D01*
X144939047Y-66159047D01*
X145843809Y-66492380D02*
X145843809Y-65825714D01*
X145843809Y-66016190D02*
X145891428Y-65920952D01*
X145939047Y-65873333D01*
X146034285Y-65825714D01*
X146129523Y-65825714D01*
X146462857Y-66492380D02*
X146462857Y-65825714D01*
X146462857Y-65920952D02*
X146510476Y-65873333D01*
X146605714Y-65825714D01*
X146748571Y-65825714D01*
X146843809Y-65873333D01*
X146891428Y-65968571D01*
X146891428Y-66492380D01*
X146891428Y-65968571D02*
X146939047Y-65873333D01*
X147034285Y-65825714D01*
X147177142Y-65825714D01*
X147272380Y-65873333D01*
X147320000Y-65968571D01*
X147320000Y-66492380D01*
X147796190Y-66492380D02*
X147796190Y-65825714D01*
X147796190Y-65492380D02*
X147748571Y-65540000D01*
X147796190Y-65587619D01*
X147843809Y-65540000D01*
X147796190Y-65492380D01*
X147796190Y-65587619D01*
X148272380Y-65825714D02*
X148272380Y-66492380D01*
X148272380Y-65920952D02*
X148320000Y-65873333D01*
X148415238Y-65825714D01*
X148558095Y-65825714D01*
X148653333Y-65873333D01*
X148700952Y-65968571D01*
X148700952Y-66492380D01*
X149605714Y-66492380D02*
X149605714Y-65968571D01*
X149558095Y-65873333D01*
X149462857Y-65825714D01*
X149272380Y-65825714D01*
X149177142Y-65873333D01*
X149605714Y-66444761D02*
X149510476Y-66492380D01*
X149272380Y-66492380D01*
X149177142Y-66444761D01*
X149129523Y-66349523D01*
X149129523Y-66254285D01*
X149177142Y-66159047D01*
X149272380Y-66111428D01*
X149510476Y-66111428D01*
X149605714Y-66063809D01*
X150224761Y-66492380D02*
X150129523Y-66444761D01*
X150081904Y-66349523D01*
X150081904Y-65492380D01*
X150367619Y-66587619D02*
X151129523Y-66587619D01*
X151558095Y-65492380D02*
X151653333Y-65492380D01*
X151748571Y-65540000D01*
X151796190Y-65587619D01*
X151843809Y-65682857D01*
X151891428Y-65873333D01*
X151891428Y-66111428D01*
X151843809Y-66301904D01*
X151796190Y-66397142D01*
X151748571Y-66444761D01*
X151653333Y-66492380D01*
X151558095Y-66492380D01*
X151462857Y-66444761D01*
X151415238Y-66397142D01*
X151367619Y-66301904D01*
X151320000Y-66111428D01*
X151320000Y-65873333D01*
X151367619Y-65682857D01*
X151415238Y-65587619D01*
X151462857Y-65540000D01*
X151558095Y-65492380D01*
X152843809Y-66492380D02*
X152272380Y-66492380D01*
X152558095Y-66492380D02*
X152558095Y-65492380D01*
X152462857Y-65635238D01*
X152367619Y-65730476D01*
X152272380Y-65778095D01*
X153177142Y-66492380D02*
X153700952Y-65825714D01*
X153177142Y-65825714D02*
X153700952Y-66492380D01*
X154272380Y-65492380D02*
X154367619Y-65492380D01*
X154462857Y-65540000D01*
X154510476Y-65587619D01*
X154558095Y-65682857D01*
X154605714Y-65873333D01*
X154605714Y-66111428D01*
X154558095Y-66301904D01*
X154510476Y-66397142D01*
X154462857Y-66444761D01*
X154367619Y-66492380D01*
X154272380Y-66492380D01*
X154177142Y-66444761D01*
X154129523Y-66397142D01*
X154081904Y-66301904D01*
X154034285Y-66111428D01*
X154034285Y-65873333D01*
X154081904Y-65682857D01*
X154129523Y-65587619D01*
X154177142Y-65540000D01*
X154272380Y-65492380D01*
X154986666Y-65587619D02*
X155034285Y-65540000D01*
X155129523Y-65492380D01*
X155367619Y-65492380D01*
X155462857Y-65540000D01*
X155510476Y-65587619D01*
X155558095Y-65682857D01*
X155558095Y-65778095D01*
X155510476Y-65920952D01*
X154939047Y-66492380D01*
X155558095Y-66492380D01*
X146986666Y-70572380D02*
X146986666Y-71286666D01*
X146939047Y-71429523D01*
X146843809Y-71524761D01*
X146700952Y-71572380D01*
X146605714Y-71572380D01*
X147415238Y-70667619D02*
X147462857Y-70620000D01*
X147558095Y-70572380D01*
X147796190Y-70572380D01*
X147891428Y-70620000D01*
X147939047Y-70667619D01*
X147986666Y-70762857D01*
X147986666Y-70858095D01*
X147939047Y-71000952D01*
X147367619Y-71572380D01*
X147986666Y-71572380D01*
M02*
