G04 #@! TF.GenerationSoftware,KiCad,Pcbnew,(5.1.5)-3*
G04 #@! TF.CreationDate,2020-04-12T12:52:20+02:00*
G04 #@! TF.ProjectId,NanoIrrigator,4e616e6f-4972-4726-9967-61746f722e6b,0.1*
G04 #@! TF.SameCoordinates,Original*
G04 #@! TF.FileFunction,Other,User*
%FSLAX46Y46*%
G04 Gerber Fmt 4.6, Leading zero omitted, Abs format (unit mm)*
G04 Created by KiCad (PCBNEW (5.1.5)-3) date 2020-04-12 12:52:20*
%MOMM*%
%LPD*%
G04 APERTURE LIST*
%ADD10C,0.050000*%
G04 APERTURE END LIST*
D10*
X142070000Y-87205000D02*
X152570000Y-87205000D01*
X142070000Y-82295000D02*
X142070000Y-87205000D01*
X152570000Y-82295000D02*
X142070000Y-82295000D01*
X152570000Y-87205000D02*
X152570000Y-82295000D01*
X152025000Y-93650000D02*
X141325000Y-93650000D01*
X152025000Y-101950000D02*
X152025000Y-93650000D01*
X141325000Y-101950000D02*
X152025000Y-101950000D01*
X141325000Y-93650000D02*
X141325000Y-101950000D01*
X146640000Y-81325000D02*
X150540000Y-81325000D01*
X150540000Y-81325000D02*
X150540000Y-75725000D01*
X150540000Y-75725000D02*
X146640000Y-75725000D01*
X146640000Y-75725000D02*
X146640000Y-81325000D01*
X146355000Y-87935000D02*
X146355000Y-91135000D01*
X146355000Y-91135000D02*
X151605000Y-91135000D01*
X151605000Y-91135000D02*
X151605000Y-87935000D01*
X151605000Y-87935000D02*
X146355000Y-87935000D01*
X144475000Y-87300000D02*
X141275000Y-87300000D01*
X141275000Y-87300000D02*
X141275000Y-92550000D01*
X141275000Y-92550000D02*
X144475000Y-92550000D01*
X144475000Y-92550000D02*
X144475000Y-87300000D01*
X141196000Y-69497000D02*
X137696000Y-69497000D01*
X141196000Y-108597000D02*
X137696000Y-108597000D01*
X141196000Y-69497000D02*
X141196000Y-108597000D01*
X137696000Y-69497000D02*
X137696000Y-108597000D01*
X156436000Y-69497000D02*
X152936000Y-69497000D01*
X156436000Y-108597000D02*
X152936000Y-108597000D01*
X156436000Y-69497000D02*
X156436000Y-108597000D01*
X152936000Y-69497000D02*
X152936000Y-108597000D01*
X141230000Y-78620000D02*
X145830000Y-78620000D01*
X141230000Y-76320000D02*
X141230000Y-78620000D01*
X145830000Y-76320000D02*
X141230000Y-76320000D01*
X145830000Y-78620000D02*
X145830000Y-76320000D01*
X152570000Y-110680000D02*
X142070000Y-110680000D01*
X152570000Y-110680000D02*
X152570000Y-102680000D01*
X142070000Y-102680000D02*
X142070000Y-110680000D01*
X142070000Y-102680000D02*
X152570000Y-102680000D01*
X152570000Y-75120000D02*
X142070000Y-75120000D01*
X152570000Y-75120000D02*
X152570000Y-67120000D01*
X142070000Y-67120000D02*
X142070000Y-75120000D01*
X142070000Y-67120000D02*
X152570000Y-67120000D01*
M02*
