%FSLAX45Y45*%
G04 Gerber Fmt 4.5, Leading zero omitted, Abs format (unit mm)*
G04 Created by KiCad (PCBNEW (5.1.5)-3) date 2020-04-12 12:52:30*
%MOMM*%
%LPD*%
G04 APERTURE LIST*
%TA.AperFunction,Profile*%
%ADD10C,0.100000*%
%TD*%
%ADD11C,0.200000*%
%ADD12C,0.300000*%
G04 APERTURE END LIST*
D10*
X13817600Y-6743700D02*
X13817600Y-11061700D01*
X15595600Y-6743700D02*
X13817600Y-6743700D01*
X15595600Y-11061700D02*
X15595600Y-6743700D01*
X13817600Y-11061700D02*
X15595600Y-11061700D01*
D11*
X14755500Y-8913500D02*
X14835500Y-8993500D01*
X14835500Y-8913500D02*
X14755500Y-8993500D01*
X14819000Y-7643500D02*
X14899000Y-7723500D01*
X14899000Y-7643500D02*
X14819000Y-7723500D01*
X14819000Y-7897500D02*
X14899000Y-7977500D01*
X14899000Y-7897500D02*
X14819000Y-7977500D01*
X14188000Y-7707000D02*
X14268000Y-7787000D01*
X14268000Y-7707000D02*
X14188000Y-7787000D01*
X14438000Y-7707000D02*
X14518000Y-7787000D01*
X14518000Y-7707000D02*
X14438000Y-7787000D01*
X15009500Y-8913500D02*
X15089500Y-8993500D01*
X15089500Y-8913500D02*
X15009500Y-8993500D01*
X14247500Y-9485000D02*
X14327500Y-9565000D01*
X14327500Y-9485000D02*
X14247500Y-9565000D01*
X14247500Y-9739000D02*
X14327500Y-9819000D01*
X14327500Y-9739000D02*
X14247500Y-9819000D01*
X14247500Y-9993000D02*
X14327500Y-10073000D01*
X14327500Y-9993000D02*
X14247500Y-10073000D01*
X15009500Y-9485000D02*
X15089500Y-9565000D01*
X15089500Y-9485000D02*
X15009500Y-9565000D01*
X15009500Y-9739000D02*
X15089500Y-9819000D01*
X15089500Y-9739000D02*
X15009500Y-9819000D01*
X15009500Y-9993000D02*
X15089500Y-10073000D01*
X15089500Y-9993000D02*
X15009500Y-10073000D01*
X14247500Y-8850000D02*
X14327500Y-8930000D01*
X14327500Y-8850000D02*
X14247500Y-8930000D01*
X14247500Y-9104000D02*
X14327500Y-9184000D01*
X14327500Y-9104000D02*
X14247500Y-9184000D01*
X14528000Y-8445500D02*
G75*
G03X14528000Y-8445500I-50000J0D01*
G01*
X14782000Y-8445500D02*
G75*
G03X14782000Y-8445500I-50000J0D01*
G01*
X15036000Y-8445500D02*
G75*
G03X15036000Y-8445500I-50000J0D01*
G01*
X13944600Y-7073900D02*
X13944600Y-7175500D01*
X13893800Y-7124700D02*
X13995400Y-7124700D01*
X13944600Y-7327900D02*
X13944600Y-7429500D01*
X13893800Y-7378700D02*
X13995400Y-7378700D01*
X13944600Y-7581900D02*
X13944600Y-7683500D01*
X13893800Y-7632700D02*
X13995400Y-7632700D01*
X13944600Y-7835900D02*
X13944600Y-7937500D01*
X13893800Y-7886700D02*
X13995400Y-7886700D01*
X13944600Y-8089900D02*
X13944600Y-8191500D01*
X13893800Y-8140700D02*
X13995400Y-8140700D01*
X13944600Y-8343900D02*
X13944600Y-8445500D01*
X13893800Y-8394700D02*
X13995400Y-8394700D01*
X13944600Y-8597900D02*
X13944600Y-8699500D01*
X13893800Y-8648700D02*
X13995400Y-8648700D01*
X13944600Y-8851900D02*
X13944600Y-8953500D01*
X13893800Y-8902700D02*
X13995400Y-8902700D01*
X13944600Y-9105900D02*
X13944600Y-9207500D01*
X13893800Y-9156700D02*
X13995400Y-9156700D01*
X13944600Y-9359900D02*
X13944600Y-9461500D01*
X13893800Y-9410700D02*
X13995400Y-9410700D01*
X13944600Y-9613900D02*
X13944600Y-9715500D01*
X13893800Y-9664700D02*
X13995400Y-9664700D01*
X13944600Y-9867900D02*
X13944600Y-9969500D01*
X13893800Y-9918700D02*
X13995400Y-9918700D01*
X13944600Y-10121900D02*
X13944600Y-10223500D01*
X13893800Y-10172700D02*
X13995400Y-10172700D01*
X13944600Y-10375900D02*
X13944600Y-10477500D01*
X13893800Y-10426700D02*
X13995400Y-10426700D01*
X13944600Y-10629900D02*
X13944600Y-10731500D01*
X13893800Y-10680700D02*
X13995400Y-10680700D01*
X15468600Y-7073900D02*
X15468600Y-7175500D01*
X15417800Y-7124700D02*
X15519400Y-7124700D01*
X15468600Y-7327900D02*
X15468600Y-7429500D01*
X15417800Y-7378700D02*
X15519400Y-7378700D01*
X15468600Y-7581900D02*
X15468600Y-7683500D01*
X15417800Y-7632700D02*
X15519400Y-7632700D01*
X15468600Y-7835900D02*
X15468600Y-7937500D01*
X15417800Y-7886700D02*
X15519400Y-7886700D01*
X15468600Y-8089900D02*
X15468600Y-8191500D01*
X15417800Y-8140700D02*
X15519400Y-8140700D01*
X15468600Y-8343900D02*
X15468600Y-8445500D01*
X15417800Y-8394700D02*
X15519400Y-8394700D01*
X15468600Y-8597900D02*
X15468600Y-8699500D01*
X15417800Y-8648700D02*
X15519400Y-8648700D01*
X15468600Y-8851900D02*
X15468600Y-8953500D01*
X15417800Y-8902700D02*
X15519400Y-8902700D01*
X15468600Y-9105900D02*
X15468600Y-9207500D01*
X15417800Y-9156700D02*
X15519400Y-9156700D01*
X15468600Y-9359900D02*
X15468600Y-9461500D01*
X15417800Y-9410700D02*
X15519400Y-9410700D01*
X15468600Y-9613900D02*
X15468600Y-9715500D01*
X15417800Y-9664700D02*
X15519400Y-9664700D01*
X15468600Y-9867900D02*
X15468600Y-9969500D01*
X15417800Y-9918700D02*
X15519400Y-9918700D01*
X15468600Y-10121900D02*
X15468600Y-10223500D01*
X15417800Y-10172700D02*
X15519400Y-10172700D01*
X15468600Y-10375900D02*
X15468600Y-10477500D01*
X15417800Y-10426700D02*
X15519400Y-10426700D01*
X15468600Y-10629900D02*
X15468600Y-10731500D01*
X15417800Y-10680700D02*
X15519400Y-10680700D01*
X14531741Y-10721741D02*
X14531741Y-10614259D01*
X14424259Y-10614259D01*
X14424259Y-10721741D01*
X14531741Y-10721741D01*
X15039741Y-10721741D02*
X15039741Y-10614259D01*
X14932259Y-10614259D01*
X14932259Y-10721741D01*
X15039741Y-10721741D01*
X14531741Y-7165741D02*
X14531741Y-7058259D01*
X14424259Y-7058259D01*
X14424259Y-7165741D01*
X14531741Y-7165741D01*
X15039741Y-7165741D02*
X15039741Y-7058259D01*
X14932259Y-7058259D01*
X14932259Y-7165741D01*
X15039741Y-7165741D01*
X15468600Y-6959600D02*
X15557500Y-6870700D01*
X15468600Y-6781800D01*
X15379700Y-6870700D01*
X15468600Y-6959600D01*
X13944600Y-6959600D02*
X14033500Y-6870700D01*
X13944600Y-6781800D01*
X13855700Y-6870700D01*
X13944600Y-6959600D01*
X15468600Y-11023600D02*
X15557500Y-10934700D01*
X15468600Y-10845800D01*
X15379700Y-10934700D01*
X15468600Y-11023600D01*
X13944600Y-11023600D02*
X14033500Y-10934700D01*
X13944600Y-10845800D01*
X13855700Y-10934700D01*
X13944600Y-11023600D01*
D12*
X14099028Y-11532414D02*
X14099028Y-11232414D01*
X14170457Y-11232414D01*
X14213314Y-11246700D01*
X14241886Y-11275271D01*
X14256171Y-11303843D01*
X14270457Y-11360986D01*
X14270457Y-11403843D01*
X14256171Y-11460986D01*
X14241886Y-11489557D01*
X14213314Y-11518129D01*
X14170457Y-11532414D01*
X14099028Y-11532414D01*
X14399028Y-11532414D02*
X14399028Y-11332414D01*
X14399028Y-11389557D02*
X14413314Y-11360986D01*
X14427600Y-11346700D01*
X14456171Y-11332414D01*
X14484743Y-11332414D01*
X14584743Y-11532414D02*
X14584743Y-11332414D01*
X14584743Y-11232414D02*
X14570457Y-11246700D01*
X14584743Y-11260986D01*
X14599028Y-11246700D01*
X14584743Y-11232414D01*
X14584743Y-11260986D01*
X14770457Y-11532414D02*
X14741886Y-11518129D01*
X14727600Y-11489557D01*
X14727600Y-11232414D01*
X14927600Y-11532414D02*
X14899028Y-11518129D01*
X14884743Y-11489557D01*
X14884743Y-11232414D01*
X15270457Y-11532414D02*
X15270457Y-11232414D01*
X15370457Y-11446700D01*
X15470457Y-11232414D01*
X15470457Y-11532414D01*
X15741886Y-11532414D02*
X15741886Y-11375271D01*
X15727600Y-11346700D01*
X15699028Y-11332414D01*
X15641886Y-11332414D01*
X15613314Y-11346700D01*
X15741886Y-11518129D02*
X15713314Y-11532414D01*
X15641886Y-11532414D01*
X15613314Y-11518129D01*
X15599028Y-11489557D01*
X15599028Y-11460986D01*
X15613314Y-11432414D01*
X15641886Y-11418129D01*
X15713314Y-11418129D01*
X15741886Y-11403843D01*
X15884743Y-11332414D02*
X15884743Y-11632414D01*
X15884743Y-11346700D02*
X15913314Y-11332414D01*
X15970457Y-11332414D01*
X15999028Y-11346700D01*
X16013314Y-11360986D01*
X16027600Y-11389557D01*
X16027600Y-11475271D01*
X16013314Y-11503843D01*
X15999028Y-11518129D01*
X15970457Y-11532414D01*
X15913314Y-11532414D01*
X15884743Y-11518129D01*
X16156171Y-11503843D02*
X16170457Y-11518129D01*
X16156171Y-11532414D01*
X16141886Y-11518129D01*
X16156171Y-11503843D01*
X16156171Y-11532414D01*
X16156171Y-11346700D02*
X16170457Y-11360986D01*
X16156171Y-11375271D01*
X16141886Y-11360986D01*
X16156171Y-11346700D01*
X16156171Y-11375271D01*
X13732600Y-11986700D02*
X13812600Y-12066700D01*
X13812600Y-11986700D02*
X13732600Y-12066700D01*
X14156171Y-11862414D02*
X14184743Y-11862414D01*
X14213314Y-11876700D01*
X14227600Y-11890986D01*
X14241886Y-11919557D01*
X14256171Y-11976700D01*
X14256171Y-12048129D01*
X14241886Y-12105271D01*
X14227600Y-12133843D01*
X14213314Y-12148129D01*
X14184743Y-12162414D01*
X14156171Y-12162414D01*
X14127600Y-12148129D01*
X14113314Y-12133843D01*
X14099028Y-12105271D01*
X14084743Y-12048129D01*
X14084743Y-11976700D01*
X14099028Y-11919557D01*
X14113314Y-11890986D01*
X14127600Y-11876700D01*
X14156171Y-11862414D01*
X14384743Y-12133843D02*
X14399028Y-12148129D01*
X14384743Y-12162414D01*
X14370457Y-12148129D01*
X14384743Y-12133843D01*
X14384743Y-12162414D01*
X14570457Y-11990986D02*
X14541886Y-11976700D01*
X14527600Y-11962414D01*
X14513314Y-11933843D01*
X14513314Y-11919557D01*
X14527600Y-11890986D01*
X14541886Y-11876700D01*
X14570457Y-11862414D01*
X14627600Y-11862414D01*
X14656171Y-11876700D01*
X14670457Y-11890986D01*
X14684743Y-11919557D01*
X14684743Y-11933843D01*
X14670457Y-11962414D01*
X14656171Y-11976700D01*
X14627600Y-11990986D01*
X14570457Y-11990986D01*
X14541886Y-12005271D01*
X14527600Y-12019557D01*
X14513314Y-12048129D01*
X14513314Y-12105271D01*
X14527600Y-12133843D01*
X14541886Y-12148129D01*
X14570457Y-12162414D01*
X14627600Y-12162414D01*
X14656171Y-12148129D01*
X14670457Y-12133843D01*
X14684743Y-12105271D01*
X14684743Y-12048129D01*
X14670457Y-12019557D01*
X14656171Y-12005271D01*
X14627600Y-11990986D01*
X14870457Y-11862414D02*
X14899028Y-11862414D01*
X14927600Y-11876700D01*
X14941886Y-11890986D01*
X14956171Y-11919557D01*
X14970457Y-11976700D01*
X14970457Y-12048129D01*
X14956171Y-12105271D01*
X14941886Y-12133843D01*
X14927600Y-12148129D01*
X14899028Y-12162414D01*
X14870457Y-12162414D01*
X14841886Y-12148129D01*
X14827600Y-12133843D01*
X14813314Y-12105271D01*
X14799028Y-12048129D01*
X14799028Y-11976700D01*
X14813314Y-11919557D01*
X14827600Y-11890986D01*
X14841886Y-11876700D01*
X14870457Y-11862414D01*
X15099028Y-12162414D02*
X15099028Y-11962414D01*
X15099028Y-11990986D02*
X15113314Y-11976700D01*
X15141886Y-11962414D01*
X15184743Y-11962414D01*
X15213314Y-11976700D01*
X15227600Y-12005271D01*
X15227600Y-12162414D01*
X15227600Y-12005271D02*
X15241886Y-11976700D01*
X15270457Y-11962414D01*
X15313314Y-11962414D01*
X15341886Y-11976700D01*
X15356171Y-12005271D01*
X15356171Y-12162414D01*
X15499028Y-12162414D02*
X15499028Y-11962414D01*
X15499028Y-11990986D02*
X15513314Y-11976700D01*
X15541886Y-11962414D01*
X15584743Y-11962414D01*
X15613314Y-11976700D01*
X15627600Y-12005271D01*
X15627600Y-12162414D01*
X15627600Y-12005271D02*
X15641886Y-11976700D01*
X15670457Y-11962414D01*
X15713314Y-11962414D01*
X15741886Y-11976700D01*
X15756171Y-12005271D01*
X15756171Y-12162414D01*
X16341886Y-11848129D02*
X16084743Y-12233843D01*
X16727600Y-11862414D02*
X16756171Y-11862414D01*
X16784743Y-11876700D01*
X16799028Y-11890986D01*
X16813314Y-11919557D01*
X16827600Y-11976700D01*
X16827600Y-12048129D01*
X16813314Y-12105271D01*
X16799028Y-12133843D01*
X16784743Y-12148129D01*
X16756171Y-12162414D01*
X16727600Y-12162414D01*
X16699028Y-12148129D01*
X16684743Y-12133843D01*
X16670457Y-12105271D01*
X16656171Y-12048129D01*
X16656171Y-11976700D01*
X16670457Y-11919557D01*
X16684743Y-11890986D01*
X16699028Y-11876700D01*
X16727600Y-11862414D01*
X16956171Y-12133843D02*
X16970457Y-12148129D01*
X16956171Y-12162414D01*
X16941886Y-12148129D01*
X16956171Y-12133843D01*
X16956171Y-12162414D01*
X17156171Y-11862414D02*
X17184743Y-11862414D01*
X17213314Y-11876700D01*
X17227600Y-11890986D01*
X17241886Y-11919557D01*
X17256171Y-11976700D01*
X17256171Y-12048129D01*
X17241886Y-12105271D01*
X17227600Y-12133843D01*
X17213314Y-12148129D01*
X17184743Y-12162414D01*
X17156171Y-12162414D01*
X17127600Y-12148129D01*
X17113314Y-12133843D01*
X17099028Y-12105271D01*
X17084743Y-12048129D01*
X17084743Y-11976700D01*
X17099028Y-11919557D01*
X17113314Y-11890986D01*
X17127600Y-11876700D01*
X17156171Y-11862414D01*
X17356171Y-11862414D02*
X17541886Y-11862414D01*
X17441886Y-11976700D01*
X17484743Y-11976700D01*
X17513314Y-11990986D01*
X17527600Y-12005271D01*
X17541886Y-12033843D01*
X17541886Y-12105271D01*
X17527600Y-12133843D01*
X17513314Y-12148129D01*
X17484743Y-12162414D01*
X17399028Y-12162414D01*
X17370457Y-12148129D01*
X17356171Y-12133843D01*
X17827600Y-12162414D02*
X17656171Y-12162414D01*
X17741886Y-12162414D02*
X17741886Y-11862414D01*
X17713314Y-11905271D01*
X17684743Y-11933843D01*
X17656171Y-11948129D01*
X17941886Y-11862414D02*
X17941886Y-11919557D01*
X18056171Y-11862414D02*
X18056171Y-11919557D01*
X18499028Y-12276700D02*
X18484743Y-12262414D01*
X18456171Y-12219557D01*
X18441886Y-12190986D01*
X18427600Y-12148129D01*
X18413314Y-12076700D01*
X18413314Y-12019557D01*
X18427600Y-11948129D01*
X18441886Y-11905271D01*
X18456171Y-11876700D01*
X18484743Y-11833843D01*
X18499028Y-11819557D01*
X18770457Y-12162414D02*
X18599028Y-12162414D01*
X18684743Y-12162414D02*
X18684743Y-11862414D01*
X18656171Y-11905271D01*
X18627600Y-11933843D01*
X18599028Y-11948129D01*
X19027600Y-11962414D02*
X19027600Y-12162414D01*
X18956171Y-11848129D02*
X18884743Y-12062414D01*
X19070457Y-12062414D01*
X19413314Y-12162414D02*
X19413314Y-11862414D01*
X19541886Y-12162414D02*
X19541886Y-12005271D01*
X19527600Y-11976700D01*
X19499028Y-11962414D01*
X19456171Y-11962414D01*
X19427600Y-11976700D01*
X19413314Y-11990986D01*
X19727600Y-12162414D02*
X19699028Y-12148129D01*
X19684743Y-12133843D01*
X19670457Y-12105271D01*
X19670457Y-12019557D01*
X19684743Y-11990986D01*
X19699028Y-11976700D01*
X19727600Y-11962414D01*
X19770457Y-11962414D01*
X19799028Y-11976700D01*
X19813314Y-11990986D01*
X19827600Y-12019557D01*
X19827600Y-12105271D01*
X19813314Y-12133843D01*
X19799028Y-12148129D01*
X19770457Y-12162414D01*
X19727600Y-12162414D01*
X19999028Y-12162414D02*
X19970457Y-12148129D01*
X19956171Y-12119557D01*
X19956171Y-11862414D01*
X20227600Y-12148129D02*
X20199028Y-12162414D01*
X20141886Y-12162414D01*
X20113314Y-12148129D01*
X20099028Y-12119557D01*
X20099028Y-12005271D01*
X20113314Y-11976700D01*
X20141886Y-11962414D01*
X20199028Y-11962414D01*
X20227600Y-11976700D01*
X20241886Y-12005271D01*
X20241886Y-12033843D01*
X20099028Y-12062414D01*
X20356171Y-12148129D02*
X20384743Y-12162414D01*
X20441886Y-12162414D01*
X20470457Y-12148129D01*
X20484743Y-12119557D01*
X20484743Y-12105271D01*
X20470457Y-12076700D01*
X20441886Y-12062414D01*
X20399028Y-12062414D01*
X20370457Y-12048129D01*
X20356171Y-12019557D01*
X20356171Y-12005271D01*
X20370457Y-11976700D01*
X20399028Y-11962414D01*
X20441886Y-11962414D01*
X20470457Y-11976700D01*
X20584743Y-12276700D02*
X20599028Y-12262414D01*
X20627600Y-12219557D01*
X20641886Y-12190986D01*
X20656171Y-12148129D01*
X20670457Y-12076700D01*
X20670457Y-12019557D01*
X20656171Y-11948129D01*
X20641886Y-11905271D01*
X20627600Y-11876700D01*
X20599028Y-11833843D01*
X20584743Y-11819557D01*
X13812600Y-12422700D02*
G75*
G03X13812600Y-12422700I-50000J0D01*
G01*
X14256171Y-12558414D02*
X14084743Y-12558414D01*
X14170457Y-12558414D02*
X14170457Y-12258414D01*
X14141886Y-12301271D01*
X14113314Y-12329843D01*
X14084743Y-12344129D01*
X14384743Y-12529843D02*
X14399028Y-12544129D01*
X14384743Y-12558414D01*
X14370457Y-12544129D01*
X14384743Y-12529843D01*
X14384743Y-12558414D01*
X14584743Y-12258414D02*
X14613314Y-12258414D01*
X14641886Y-12272700D01*
X14656171Y-12286986D01*
X14670457Y-12315557D01*
X14684743Y-12372700D01*
X14684743Y-12444129D01*
X14670457Y-12501271D01*
X14656171Y-12529843D01*
X14641886Y-12544129D01*
X14613314Y-12558414D01*
X14584743Y-12558414D01*
X14556171Y-12544129D01*
X14541886Y-12529843D01*
X14527600Y-12501271D01*
X14513314Y-12444129D01*
X14513314Y-12372700D01*
X14527600Y-12315557D01*
X14541886Y-12286986D01*
X14556171Y-12272700D01*
X14584743Y-12258414D01*
X14870457Y-12258414D02*
X14899028Y-12258414D01*
X14927600Y-12272700D01*
X14941886Y-12286986D01*
X14956171Y-12315557D01*
X14970457Y-12372700D01*
X14970457Y-12444129D01*
X14956171Y-12501271D01*
X14941886Y-12529843D01*
X14927600Y-12544129D01*
X14899028Y-12558414D01*
X14870457Y-12558414D01*
X14841886Y-12544129D01*
X14827600Y-12529843D01*
X14813314Y-12501271D01*
X14799028Y-12444129D01*
X14799028Y-12372700D01*
X14813314Y-12315557D01*
X14827600Y-12286986D01*
X14841886Y-12272700D01*
X14870457Y-12258414D01*
X15099028Y-12558414D02*
X15099028Y-12358414D01*
X15099028Y-12386986D02*
X15113314Y-12372700D01*
X15141886Y-12358414D01*
X15184743Y-12358414D01*
X15213314Y-12372700D01*
X15227600Y-12401271D01*
X15227600Y-12558414D01*
X15227600Y-12401271D02*
X15241886Y-12372700D01*
X15270457Y-12358414D01*
X15313314Y-12358414D01*
X15341886Y-12372700D01*
X15356171Y-12401271D01*
X15356171Y-12558414D01*
X15499028Y-12558414D02*
X15499028Y-12358414D01*
X15499028Y-12386986D02*
X15513314Y-12372700D01*
X15541886Y-12358414D01*
X15584743Y-12358414D01*
X15613314Y-12372700D01*
X15627600Y-12401271D01*
X15627600Y-12558414D01*
X15627600Y-12401271D02*
X15641886Y-12372700D01*
X15670457Y-12358414D01*
X15713314Y-12358414D01*
X15741886Y-12372700D01*
X15756171Y-12401271D01*
X15756171Y-12558414D01*
X16341886Y-12244129D02*
X16084743Y-12629843D01*
X16727600Y-12258414D02*
X16756171Y-12258414D01*
X16784743Y-12272700D01*
X16799028Y-12286986D01*
X16813314Y-12315557D01*
X16827600Y-12372700D01*
X16827600Y-12444129D01*
X16813314Y-12501271D01*
X16799028Y-12529843D01*
X16784743Y-12544129D01*
X16756171Y-12558414D01*
X16727600Y-12558414D01*
X16699028Y-12544129D01*
X16684743Y-12529843D01*
X16670457Y-12501271D01*
X16656171Y-12444129D01*
X16656171Y-12372700D01*
X16670457Y-12315557D01*
X16684743Y-12286986D01*
X16699028Y-12272700D01*
X16727600Y-12258414D01*
X16956171Y-12529843D02*
X16970457Y-12544129D01*
X16956171Y-12558414D01*
X16941886Y-12544129D01*
X16956171Y-12529843D01*
X16956171Y-12558414D01*
X17156171Y-12258414D02*
X17184743Y-12258414D01*
X17213314Y-12272700D01*
X17227600Y-12286986D01*
X17241886Y-12315557D01*
X17256171Y-12372700D01*
X17256171Y-12444129D01*
X17241886Y-12501271D01*
X17227600Y-12529843D01*
X17213314Y-12544129D01*
X17184743Y-12558414D01*
X17156171Y-12558414D01*
X17127600Y-12544129D01*
X17113314Y-12529843D01*
X17099028Y-12501271D01*
X17084743Y-12444129D01*
X17084743Y-12372700D01*
X17099028Y-12315557D01*
X17113314Y-12286986D01*
X17127600Y-12272700D01*
X17156171Y-12258414D01*
X17356171Y-12258414D02*
X17541886Y-12258414D01*
X17441886Y-12372700D01*
X17484743Y-12372700D01*
X17513314Y-12386986D01*
X17527600Y-12401271D01*
X17541886Y-12429843D01*
X17541886Y-12501271D01*
X17527600Y-12529843D01*
X17513314Y-12544129D01*
X17484743Y-12558414D01*
X17399028Y-12558414D01*
X17370457Y-12544129D01*
X17356171Y-12529843D01*
X17684743Y-12558414D02*
X17741886Y-12558414D01*
X17770457Y-12544129D01*
X17784743Y-12529843D01*
X17813314Y-12486986D01*
X17827600Y-12429843D01*
X17827600Y-12315557D01*
X17813314Y-12286986D01*
X17799028Y-12272700D01*
X17770457Y-12258414D01*
X17713314Y-12258414D01*
X17684743Y-12272700D01*
X17670457Y-12286986D01*
X17656171Y-12315557D01*
X17656171Y-12386986D01*
X17670457Y-12415557D01*
X17684743Y-12429843D01*
X17713314Y-12444129D01*
X17770457Y-12444129D01*
X17799028Y-12429843D01*
X17813314Y-12415557D01*
X17827600Y-12386986D01*
X17941886Y-12258414D02*
X17941886Y-12315557D01*
X18056171Y-12258414D02*
X18056171Y-12315557D01*
X18499028Y-12672700D02*
X18484743Y-12658414D01*
X18456171Y-12615557D01*
X18441886Y-12586986D01*
X18427600Y-12544129D01*
X18413314Y-12472700D01*
X18413314Y-12415557D01*
X18427600Y-12344129D01*
X18441886Y-12301271D01*
X18456171Y-12272700D01*
X18484743Y-12229843D01*
X18499028Y-12215557D01*
X18584743Y-12258414D02*
X18770457Y-12258414D01*
X18670457Y-12372700D01*
X18713314Y-12372700D01*
X18741886Y-12386986D01*
X18756171Y-12401271D01*
X18770457Y-12429843D01*
X18770457Y-12501271D01*
X18756171Y-12529843D01*
X18741886Y-12544129D01*
X18713314Y-12558414D01*
X18627600Y-12558414D01*
X18599028Y-12544129D01*
X18584743Y-12529843D01*
X19127600Y-12558414D02*
X19127600Y-12258414D01*
X19256171Y-12558414D02*
X19256171Y-12401271D01*
X19241886Y-12372700D01*
X19213314Y-12358414D01*
X19170457Y-12358414D01*
X19141886Y-12372700D01*
X19127600Y-12386986D01*
X19441886Y-12558414D02*
X19413314Y-12544129D01*
X19399028Y-12529843D01*
X19384743Y-12501271D01*
X19384743Y-12415557D01*
X19399028Y-12386986D01*
X19413314Y-12372700D01*
X19441886Y-12358414D01*
X19484743Y-12358414D01*
X19513314Y-12372700D01*
X19527600Y-12386986D01*
X19541886Y-12415557D01*
X19541886Y-12501271D01*
X19527600Y-12529843D01*
X19513314Y-12544129D01*
X19484743Y-12558414D01*
X19441886Y-12558414D01*
X19713314Y-12558414D02*
X19684743Y-12544129D01*
X19670457Y-12515557D01*
X19670457Y-12258414D01*
X19941886Y-12544129D02*
X19913314Y-12558414D01*
X19856171Y-12558414D01*
X19827600Y-12544129D01*
X19813314Y-12515557D01*
X19813314Y-12401271D01*
X19827600Y-12372700D01*
X19856171Y-12358414D01*
X19913314Y-12358414D01*
X19941886Y-12372700D01*
X19956171Y-12401271D01*
X19956171Y-12429843D01*
X19813314Y-12458414D01*
X20070457Y-12544129D02*
X20099028Y-12558414D01*
X20156171Y-12558414D01*
X20184743Y-12544129D01*
X20199028Y-12515557D01*
X20199028Y-12501271D01*
X20184743Y-12472700D01*
X20156171Y-12458414D01*
X20113314Y-12458414D01*
X20084743Y-12444129D01*
X20070457Y-12415557D01*
X20070457Y-12401271D01*
X20084743Y-12372700D01*
X20113314Y-12358414D01*
X20156171Y-12358414D01*
X20184743Y-12372700D01*
X20299028Y-12672700D02*
X20313314Y-12658414D01*
X20341886Y-12615557D01*
X20356171Y-12586986D01*
X20370457Y-12544129D01*
X20384743Y-12472700D01*
X20384743Y-12415557D01*
X20370457Y-12344129D01*
X20356171Y-12301271D01*
X20341886Y-12272700D01*
X20313314Y-12229843D01*
X20299028Y-12215557D01*
X13761800Y-12767900D02*
X13761800Y-12869500D01*
X13711000Y-12818700D02*
X13812600Y-12818700D01*
X14256171Y-12954414D02*
X14084743Y-12954414D01*
X14170457Y-12954414D02*
X14170457Y-12654414D01*
X14141886Y-12697271D01*
X14113314Y-12725843D01*
X14084743Y-12740129D01*
X14384743Y-12925843D02*
X14399028Y-12940129D01*
X14384743Y-12954414D01*
X14370457Y-12940129D01*
X14384743Y-12925843D01*
X14384743Y-12954414D01*
X14584743Y-12654414D02*
X14613314Y-12654414D01*
X14641886Y-12668700D01*
X14656171Y-12682986D01*
X14670457Y-12711557D01*
X14684743Y-12768700D01*
X14684743Y-12840129D01*
X14670457Y-12897271D01*
X14656171Y-12925843D01*
X14641886Y-12940129D01*
X14613314Y-12954414D01*
X14584743Y-12954414D01*
X14556171Y-12940129D01*
X14541886Y-12925843D01*
X14527600Y-12897271D01*
X14513314Y-12840129D01*
X14513314Y-12768700D01*
X14527600Y-12711557D01*
X14541886Y-12682986D01*
X14556171Y-12668700D01*
X14584743Y-12654414D01*
X14799028Y-12682986D02*
X14813314Y-12668700D01*
X14841886Y-12654414D01*
X14913314Y-12654414D01*
X14941886Y-12668700D01*
X14956171Y-12682986D01*
X14970457Y-12711557D01*
X14970457Y-12740129D01*
X14956171Y-12782986D01*
X14784743Y-12954414D01*
X14970457Y-12954414D01*
X15099028Y-12954414D02*
X15099028Y-12754414D01*
X15099028Y-12782986D02*
X15113314Y-12768700D01*
X15141886Y-12754414D01*
X15184743Y-12754414D01*
X15213314Y-12768700D01*
X15227600Y-12797271D01*
X15227600Y-12954414D01*
X15227600Y-12797271D02*
X15241886Y-12768700D01*
X15270457Y-12754414D01*
X15313314Y-12754414D01*
X15341886Y-12768700D01*
X15356171Y-12797271D01*
X15356171Y-12954414D01*
X15499028Y-12954414D02*
X15499028Y-12754414D01*
X15499028Y-12782986D02*
X15513314Y-12768700D01*
X15541886Y-12754414D01*
X15584743Y-12754414D01*
X15613314Y-12768700D01*
X15627600Y-12797271D01*
X15627600Y-12954414D01*
X15627600Y-12797271D02*
X15641886Y-12768700D01*
X15670457Y-12754414D01*
X15713314Y-12754414D01*
X15741886Y-12768700D01*
X15756171Y-12797271D01*
X15756171Y-12954414D01*
X16341886Y-12640129D02*
X16084743Y-13025843D01*
X16727600Y-12654414D02*
X16756171Y-12654414D01*
X16784743Y-12668700D01*
X16799028Y-12682986D01*
X16813314Y-12711557D01*
X16827600Y-12768700D01*
X16827600Y-12840129D01*
X16813314Y-12897271D01*
X16799028Y-12925843D01*
X16784743Y-12940129D01*
X16756171Y-12954414D01*
X16727600Y-12954414D01*
X16699028Y-12940129D01*
X16684743Y-12925843D01*
X16670457Y-12897271D01*
X16656171Y-12840129D01*
X16656171Y-12768700D01*
X16670457Y-12711557D01*
X16684743Y-12682986D01*
X16699028Y-12668700D01*
X16727600Y-12654414D01*
X16956171Y-12925843D02*
X16970457Y-12940129D01*
X16956171Y-12954414D01*
X16941886Y-12940129D01*
X16956171Y-12925843D01*
X16956171Y-12954414D01*
X17156171Y-12654414D02*
X17184743Y-12654414D01*
X17213314Y-12668700D01*
X17227600Y-12682986D01*
X17241886Y-12711557D01*
X17256171Y-12768700D01*
X17256171Y-12840129D01*
X17241886Y-12897271D01*
X17227600Y-12925843D01*
X17213314Y-12940129D01*
X17184743Y-12954414D01*
X17156171Y-12954414D01*
X17127600Y-12940129D01*
X17113314Y-12925843D01*
X17099028Y-12897271D01*
X17084743Y-12840129D01*
X17084743Y-12768700D01*
X17099028Y-12711557D01*
X17113314Y-12682986D01*
X17127600Y-12668700D01*
X17156171Y-12654414D01*
X17513314Y-12754414D02*
X17513314Y-12954414D01*
X17441886Y-12640129D02*
X17370457Y-12854414D01*
X17556171Y-12854414D01*
X17727600Y-12654414D02*
X17756171Y-12654414D01*
X17784743Y-12668700D01*
X17799028Y-12682986D01*
X17813314Y-12711557D01*
X17827600Y-12768700D01*
X17827600Y-12840129D01*
X17813314Y-12897271D01*
X17799028Y-12925843D01*
X17784743Y-12940129D01*
X17756171Y-12954414D01*
X17727600Y-12954414D01*
X17699028Y-12940129D01*
X17684743Y-12925843D01*
X17670457Y-12897271D01*
X17656171Y-12840129D01*
X17656171Y-12768700D01*
X17670457Y-12711557D01*
X17684743Y-12682986D01*
X17699028Y-12668700D01*
X17727600Y-12654414D01*
X17941886Y-12654414D02*
X17941886Y-12711557D01*
X18056171Y-12654414D02*
X18056171Y-12711557D01*
X18499028Y-13068700D02*
X18484743Y-13054414D01*
X18456171Y-13011557D01*
X18441886Y-12982986D01*
X18427600Y-12940129D01*
X18413314Y-12868700D01*
X18413314Y-12811557D01*
X18427600Y-12740129D01*
X18441886Y-12697271D01*
X18456171Y-12668700D01*
X18484743Y-12625843D01*
X18499028Y-12611557D01*
X18584743Y-12654414D02*
X18770457Y-12654414D01*
X18670457Y-12768700D01*
X18713314Y-12768700D01*
X18741886Y-12782986D01*
X18756171Y-12797271D01*
X18770457Y-12825843D01*
X18770457Y-12897271D01*
X18756171Y-12925843D01*
X18741886Y-12940129D01*
X18713314Y-12954414D01*
X18627600Y-12954414D01*
X18599028Y-12940129D01*
X18584743Y-12925843D01*
X18956171Y-12654414D02*
X18984743Y-12654414D01*
X19013314Y-12668700D01*
X19027600Y-12682986D01*
X19041886Y-12711557D01*
X19056171Y-12768700D01*
X19056171Y-12840129D01*
X19041886Y-12897271D01*
X19027600Y-12925843D01*
X19013314Y-12940129D01*
X18984743Y-12954414D01*
X18956171Y-12954414D01*
X18927600Y-12940129D01*
X18913314Y-12925843D01*
X18899028Y-12897271D01*
X18884743Y-12840129D01*
X18884743Y-12768700D01*
X18899028Y-12711557D01*
X18913314Y-12682986D01*
X18927600Y-12668700D01*
X18956171Y-12654414D01*
X19413314Y-12954414D02*
X19413314Y-12654414D01*
X19541886Y-12954414D02*
X19541886Y-12797271D01*
X19527600Y-12768700D01*
X19499028Y-12754414D01*
X19456171Y-12754414D01*
X19427600Y-12768700D01*
X19413314Y-12782986D01*
X19727600Y-12954414D02*
X19699028Y-12940129D01*
X19684743Y-12925843D01*
X19670457Y-12897271D01*
X19670457Y-12811557D01*
X19684743Y-12782986D01*
X19699028Y-12768700D01*
X19727600Y-12754414D01*
X19770457Y-12754414D01*
X19799028Y-12768700D01*
X19813314Y-12782986D01*
X19827600Y-12811557D01*
X19827600Y-12897271D01*
X19813314Y-12925843D01*
X19799028Y-12940129D01*
X19770457Y-12954414D01*
X19727600Y-12954414D01*
X19999028Y-12954414D02*
X19970457Y-12940129D01*
X19956171Y-12911557D01*
X19956171Y-12654414D01*
X20227600Y-12940129D02*
X20199028Y-12954414D01*
X20141886Y-12954414D01*
X20113314Y-12940129D01*
X20099028Y-12911557D01*
X20099028Y-12797271D01*
X20113314Y-12768700D01*
X20141886Y-12754414D01*
X20199028Y-12754414D01*
X20227600Y-12768700D01*
X20241886Y-12797271D01*
X20241886Y-12825843D01*
X20099028Y-12854414D01*
X20356171Y-12940129D02*
X20384743Y-12954414D01*
X20441886Y-12954414D01*
X20470457Y-12940129D01*
X20484743Y-12911557D01*
X20484743Y-12897271D01*
X20470457Y-12868700D01*
X20441886Y-12854414D01*
X20399028Y-12854414D01*
X20370457Y-12840129D01*
X20356171Y-12811557D01*
X20356171Y-12797271D01*
X20370457Y-12768700D01*
X20399028Y-12754414D01*
X20441886Y-12754414D01*
X20470457Y-12768700D01*
X20584743Y-13068700D02*
X20599028Y-13054414D01*
X20627600Y-13011557D01*
X20641886Y-12982986D01*
X20656171Y-12940129D01*
X20670457Y-12868700D01*
X20670457Y-12811557D01*
X20656171Y-12740129D01*
X20641886Y-12697271D01*
X20627600Y-12668700D01*
X20599028Y-12625843D01*
X20584743Y-12611557D01*
X13790340Y-13268441D02*
X13790340Y-13160959D01*
X13682859Y-13160959D01*
X13682859Y-13268441D01*
X13790340Y-13268441D01*
X14256171Y-13350414D02*
X14084743Y-13350414D01*
X14170457Y-13350414D02*
X14170457Y-13050414D01*
X14141886Y-13093271D01*
X14113314Y-13121843D01*
X14084743Y-13136129D01*
X14384743Y-13321843D02*
X14399028Y-13336129D01*
X14384743Y-13350414D01*
X14370457Y-13336129D01*
X14384743Y-13321843D01*
X14384743Y-13350414D01*
X14670457Y-13050414D02*
X14527600Y-13050414D01*
X14513314Y-13193271D01*
X14527600Y-13178986D01*
X14556171Y-13164700D01*
X14627600Y-13164700D01*
X14656171Y-13178986D01*
X14670457Y-13193271D01*
X14684743Y-13221843D01*
X14684743Y-13293271D01*
X14670457Y-13321843D01*
X14656171Y-13336129D01*
X14627600Y-13350414D01*
X14556171Y-13350414D01*
X14527600Y-13336129D01*
X14513314Y-13321843D01*
X14799028Y-13078986D02*
X14813314Y-13064700D01*
X14841886Y-13050414D01*
X14913314Y-13050414D01*
X14941886Y-13064700D01*
X14956171Y-13078986D01*
X14970457Y-13107557D01*
X14970457Y-13136129D01*
X14956171Y-13178986D01*
X14784743Y-13350414D01*
X14970457Y-13350414D01*
X15099028Y-13350414D02*
X15099028Y-13150414D01*
X15099028Y-13178986D02*
X15113314Y-13164700D01*
X15141886Y-13150414D01*
X15184743Y-13150414D01*
X15213314Y-13164700D01*
X15227600Y-13193271D01*
X15227600Y-13350414D01*
X15227600Y-13193271D02*
X15241886Y-13164700D01*
X15270457Y-13150414D01*
X15313314Y-13150414D01*
X15341886Y-13164700D01*
X15356171Y-13193271D01*
X15356171Y-13350414D01*
X15499028Y-13350414D02*
X15499028Y-13150414D01*
X15499028Y-13178986D02*
X15513314Y-13164700D01*
X15541886Y-13150414D01*
X15584743Y-13150414D01*
X15613314Y-13164700D01*
X15627600Y-13193271D01*
X15627600Y-13350414D01*
X15627600Y-13193271D02*
X15641886Y-13164700D01*
X15670457Y-13150414D01*
X15713314Y-13150414D01*
X15741886Y-13164700D01*
X15756171Y-13193271D01*
X15756171Y-13350414D01*
X16341886Y-13036129D02*
X16084743Y-13421843D01*
X16727600Y-13050414D02*
X16756171Y-13050414D01*
X16784743Y-13064700D01*
X16799028Y-13078986D01*
X16813314Y-13107557D01*
X16827600Y-13164700D01*
X16827600Y-13236129D01*
X16813314Y-13293271D01*
X16799028Y-13321843D01*
X16784743Y-13336129D01*
X16756171Y-13350414D01*
X16727600Y-13350414D01*
X16699028Y-13336129D01*
X16684743Y-13321843D01*
X16670457Y-13293271D01*
X16656171Y-13236129D01*
X16656171Y-13164700D01*
X16670457Y-13107557D01*
X16684743Y-13078986D01*
X16699028Y-13064700D01*
X16727600Y-13050414D01*
X16956171Y-13321843D02*
X16970457Y-13336129D01*
X16956171Y-13350414D01*
X16941886Y-13336129D01*
X16956171Y-13321843D01*
X16956171Y-13350414D01*
X17156171Y-13050414D02*
X17184743Y-13050414D01*
X17213314Y-13064700D01*
X17227600Y-13078986D01*
X17241886Y-13107557D01*
X17256171Y-13164700D01*
X17256171Y-13236129D01*
X17241886Y-13293271D01*
X17227600Y-13321843D01*
X17213314Y-13336129D01*
X17184743Y-13350414D01*
X17156171Y-13350414D01*
X17127600Y-13336129D01*
X17113314Y-13321843D01*
X17099028Y-13293271D01*
X17084743Y-13236129D01*
X17084743Y-13164700D01*
X17099028Y-13107557D01*
X17113314Y-13078986D01*
X17127600Y-13064700D01*
X17156171Y-13050414D01*
X17513314Y-13050414D02*
X17456171Y-13050414D01*
X17427600Y-13064700D01*
X17413314Y-13078986D01*
X17384743Y-13121843D01*
X17370457Y-13178986D01*
X17370457Y-13293271D01*
X17384743Y-13321843D01*
X17399028Y-13336129D01*
X17427600Y-13350414D01*
X17484743Y-13350414D01*
X17513314Y-13336129D01*
X17527600Y-13321843D01*
X17541886Y-13293271D01*
X17541886Y-13221843D01*
X17527600Y-13193271D01*
X17513314Y-13178986D01*
X17484743Y-13164700D01*
X17427600Y-13164700D01*
X17399028Y-13178986D01*
X17384743Y-13193271D01*
X17370457Y-13221843D01*
X17727600Y-13050414D02*
X17756171Y-13050414D01*
X17784743Y-13064700D01*
X17799028Y-13078986D01*
X17813314Y-13107557D01*
X17827600Y-13164700D01*
X17827600Y-13236129D01*
X17813314Y-13293271D01*
X17799028Y-13321843D01*
X17784743Y-13336129D01*
X17756171Y-13350414D01*
X17727600Y-13350414D01*
X17699028Y-13336129D01*
X17684743Y-13321843D01*
X17670457Y-13293271D01*
X17656171Y-13236129D01*
X17656171Y-13164700D01*
X17670457Y-13107557D01*
X17684743Y-13078986D01*
X17699028Y-13064700D01*
X17727600Y-13050414D01*
X17941886Y-13050414D02*
X17941886Y-13107557D01*
X18056171Y-13050414D02*
X18056171Y-13107557D01*
X18499028Y-13464700D02*
X18484743Y-13450414D01*
X18456171Y-13407557D01*
X18441886Y-13378986D01*
X18427600Y-13336129D01*
X18413314Y-13264700D01*
X18413314Y-13207557D01*
X18427600Y-13136129D01*
X18441886Y-13093271D01*
X18456171Y-13064700D01*
X18484743Y-13021843D01*
X18499028Y-13007557D01*
X18741886Y-13150414D02*
X18741886Y-13350414D01*
X18670457Y-13036129D02*
X18599028Y-13250414D01*
X18784743Y-13250414D01*
X19127600Y-13350414D02*
X19127600Y-13050414D01*
X19256171Y-13350414D02*
X19256171Y-13193271D01*
X19241886Y-13164700D01*
X19213314Y-13150414D01*
X19170457Y-13150414D01*
X19141886Y-13164700D01*
X19127600Y-13178986D01*
X19441886Y-13350414D02*
X19413314Y-13336129D01*
X19399028Y-13321843D01*
X19384743Y-13293271D01*
X19384743Y-13207557D01*
X19399028Y-13178986D01*
X19413314Y-13164700D01*
X19441886Y-13150414D01*
X19484743Y-13150414D01*
X19513314Y-13164700D01*
X19527600Y-13178986D01*
X19541886Y-13207557D01*
X19541886Y-13293271D01*
X19527600Y-13321843D01*
X19513314Y-13336129D01*
X19484743Y-13350414D01*
X19441886Y-13350414D01*
X19713314Y-13350414D02*
X19684743Y-13336129D01*
X19670457Y-13307557D01*
X19670457Y-13050414D01*
X19941886Y-13336129D02*
X19913314Y-13350414D01*
X19856171Y-13350414D01*
X19827600Y-13336129D01*
X19813314Y-13307557D01*
X19813314Y-13193271D01*
X19827600Y-13164700D01*
X19856171Y-13150414D01*
X19913314Y-13150414D01*
X19941886Y-13164700D01*
X19956171Y-13193271D01*
X19956171Y-13221843D01*
X19813314Y-13250414D01*
X20070457Y-13336129D02*
X20099028Y-13350414D01*
X20156171Y-13350414D01*
X20184743Y-13336129D01*
X20199028Y-13307557D01*
X20199028Y-13293271D01*
X20184743Y-13264700D01*
X20156171Y-13250414D01*
X20113314Y-13250414D01*
X20084743Y-13236129D01*
X20070457Y-13207557D01*
X20070457Y-13193271D01*
X20084743Y-13164700D01*
X20113314Y-13150414D01*
X20156171Y-13150414D01*
X20184743Y-13164700D01*
X20299028Y-13464700D02*
X20313314Y-13450414D01*
X20341886Y-13407557D01*
X20356171Y-13378986D01*
X20370457Y-13336129D01*
X20384743Y-13264700D01*
X20384743Y-13207557D01*
X20370457Y-13136129D01*
X20356171Y-13093271D01*
X20341886Y-13064700D01*
X20313314Y-13021843D01*
X20299028Y-13007557D01*
X13723700Y-13699600D02*
X13812600Y-13610700D01*
X13723700Y-13521800D01*
X13634800Y-13610700D01*
X13723700Y-13699600D01*
X14256171Y-13746414D02*
X14084743Y-13746414D01*
X14170457Y-13746414D02*
X14170457Y-13446414D01*
X14141886Y-13489271D01*
X14113314Y-13517843D01*
X14084743Y-13532129D01*
X14384743Y-13717843D02*
X14399028Y-13732129D01*
X14384743Y-13746414D01*
X14370457Y-13732129D01*
X14384743Y-13717843D01*
X14384743Y-13746414D01*
X14499028Y-13446414D02*
X14699028Y-13446414D01*
X14570457Y-13746414D01*
X14856171Y-13574986D02*
X14827600Y-13560700D01*
X14813314Y-13546414D01*
X14799028Y-13517843D01*
X14799028Y-13503557D01*
X14813314Y-13474986D01*
X14827600Y-13460700D01*
X14856171Y-13446414D01*
X14913314Y-13446414D01*
X14941886Y-13460700D01*
X14956171Y-13474986D01*
X14970457Y-13503557D01*
X14970457Y-13517843D01*
X14956171Y-13546414D01*
X14941886Y-13560700D01*
X14913314Y-13574986D01*
X14856171Y-13574986D01*
X14827600Y-13589271D01*
X14813314Y-13603557D01*
X14799028Y-13632129D01*
X14799028Y-13689271D01*
X14813314Y-13717843D01*
X14827600Y-13732129D01*
X14856171Y-13746414D01*
X14913314Y-13746414D01*
X14941886Y-13732129D01*
X14956171Y-13717843D01*
X14970457Y-13689271D01*
X14970457Y-13632129D01*
X14956171Y-13603557D01*
X14941886Y-13589271D01*
X14913314Y-13574986D01*
X15099028Y-13746414D02*
X15099028Y-13546414D01*
X15099028Y-13574986D02*
X15113314Y-13560700D01*
X15141886Y-13546414D01*
X15184743Y-13546414D01*
X15213314Y-13560700D01*
X15227600Y-13589271D01*
X15227600Y-13746414D01*
X15227600Y-13589271D02*
X15241886Y-13560700D01*
X15270457Y-13546414D01*
X15313314Y-13546414D01*
X15341886Y-13560700D01*
X15356171Y-13589271D01*
X15356171Y-13746414D01*
X15499028Y-13746414D02*
X15499028Y-13546414D01*
X15499028Y-13574986D02*
X15513314Y-13560700D01*
X15541886Y-13546414D01*
X15584743Y-13546414D01*
X15613314Y-13560700D01*
X15627600Y-13589271D01*
X15627600Y-13746414D01*
X15627600Y-13589271D02*
X15641886Y-13560700D01*
X15670457Y-13546414D01*
X15713314Y-13546414D01*
X15741886Y-13560700D01*
X15756171Y-13589271D01*
X15756171Y-13746414D01*
X16341886Y-13432129D02*
X16084743Y-13817843D01*
X16727600Y-13446414D02*
X16756171Y-13446414D01*
X16784743Y-13460700D01*
X16799028Y-13474986D01*
X16813314Y-13503557D01*
X16827600Y-13560700D01*
X16827600Y-13632129D01*
X16813314Y-13689271D01*
X16799028Y-13717843D01*
X16784743Y-13732129D01*
X16756171Y-13746414D01*
X16727600Y-13746414D01*
X16699028Y-13732129D01*
X16684743Y-13717843D01*
X16670457Y-13689271D01*
X16656171Y-13632129D01*
X16656171Y-13560700D01*
X16670457Y-13503557D01*
X16684743Y-13474986D01*
X16699028Y-13460700D01*
X16727600Y-13446414D01*
X16956171Y-13717843D02*
X16970457Y-13732129D01*
X16956171Y-13746414D01*
X16941886Y-13732129D01*
X16956171Y-13717843D01*
X16956171Y-13746414D01*
X17156171Y-13446414D02*
X17184743Y-13446414D01*
X17213314Y-13460700D01*
X17227600Y-13474986D01*
X17241886Y-13503557D01*
X17256171Y-13560700D01*
X17256171Y-13632129D01*
X17241886Y-13689271D01*
X17227600Y-13717843D01*
X17213314Y-13732129D01*
X17184743Y-13746414D01*
X17156171Y-13746414D01*
X17127600Y-13732129D01*
X17113314Y-13717843D01*
X17099028Y-13689271D01*
X17084743Y-13632129D01*
X17084743Y-13560700D01*
X17099028Y-13503557D01*
X17113314Y-13474986D01*
X17127600Y-13460700D01*
X17156171Y-13446414D01*
X17356171Y-13446414D02*
X17556171Y-13446414D01*
X17427600Y-13746414D01*
X17727600Y-13446414D02*
X17756171Y-13446414D01*
X17784743Y-13460700D01*
X17799028Y-13474986D01*
X17813314Y-13503557D01*
X17827600Y-13560700D01*
X17827600Y-13632129D01*
X17813314Y-13689271D01*
X17799028Y-13717843D01*
X17784743Y-13732129D01*
X17756171Y-13746414D01*
X17727600Y-13746414D01*
X17699028Y-13732129D01*
X17684743Y-13717843D01*
X17670457Y-13689271D01*
X17656171Y-13632129D01*
X17656171Y-13560700D01*
X17670457Y-13503557D01*
X17684743Y-13474986D01*
X17699028Y-13460700D01*
X17727600Y-13446414D01*
X17941886Y-13446414D02*
X17941886Y-13503557D01*
X18056171Y-13446414D02*
X18056171Y-13503557D01*
X18499028Y-13860700D02*
X18484743Y-13846414D01*
X18456171Y-13803557D01*
X18441886Y-13774986D01*
X18427600Y-13732129D01*
X18413314Y-13660700D01*
X18413314Y-13603557D01*
X18427600Y-13532129D01*
X18441886Y-13489271D01*
X18456171Y-13460700D01*
X18484743Y-13417843D01*
X18499028Y-13403557D01*
X18741886Y-13546414D02*
X18741886Y-13746414D01*
X18670457Y-13432129D02*
X18599028Y-13646414D01*
X18784743Y-13646414D01*
X19127600Y-13746414D02*
X19127600Y-13446414D01*
X19256171Y-13746414D02*
X19256171Y-13589271D01*
X19241886Y-13560700D01*
X19213314Y-13546414D01*
X19170457Y-13546414D01*
X19141886Y-13560700D01*
X19127600Y-13574986D01*
X19441886Y-13746414D02*
X19413314Y-13732129D01*
X19399028Y-13717843D01*
X19384743Y-13689271D01*
X19384743Y-13603557D01*
X19399028Y-13574986D01*
X19413314Y-13560700D01*
X19441886Y-13546414D01*
X19484743Y-13546414D01*
X19513314Y-13560700D01*
X19527600Y-13574986D01*
X19541886Y-13603557D01*
X19541886Y-13689271D01*
X19527600Y-13717843D01*
X19513314Y-13732129D01*
X19484743Y-13746414D01*
X19441886Y-13746414D01*
X19713314Y-13746414D02*
X19684743Y-13732129D01*
X19670457Y-13703557D01*
X19670457Y-13446414D01*
X19941886Y-13732129D02*
X19913314Y-13746414D01*
X19856171Y-13746414D01*
X19827600Y-13732129D01*
X19813314Y-13703557D01*
X19813314Y-13589271D01*
X19827600Y-13560700D01*
X19856171Y-13546414D01*
X19913314Y-13546414D01*
X19941886Y-13560700D01*
X19956171Y-13589271D01*
X19956171Y-13617843D01*
X19813314Y-13646414D01*
X20070457Y-13732129D02*
X20099028Y-13746414D01*
X20156171Y-13746414D01*
X20184743Y-13732129D01*
X20199028Y-13703557D01*
X20199028Y-13689271D01*
X20184743Y-13660700D01*
X20156171Y-13646414D01*
X20113314Y-13646414D01*
X20084743Y-13632129D01*
X20070457Y-13603557D01*
X20070457Y-13589271D01*
X20084743Y-13560700D01*
X20113314Y-13546414D01*
X20156171Y-13546414D01*
X20184743Y-13560700D01*
X20299028Y-13860700D02*
X20313314Y-13846414D01*
X20341886Y-13803557D01*
X20356171Y-13774986D01*
X20370457Y-13732129D01*
X20384743Y-13660700D01*
X20384743Y-13603557D01*
X20370457Y-13532129D01*
X20356171Y-13489271D01*
X20341886Y-13460700D01*
X20313314Y-13417843D01*
X20299028Y-13403557D01*
M02*
